<?xml version="1.0" encoding="UTF-8"?><svg id="Layer_1" xmlns="http://www.w3.org/2000/svg" width="276" height="511.84" viewBox="0 0 276 511.84"><defs><style>.icon-fill { fill: white; stroke-width: 0px; }</style></defs><path class="icon-fill" d="m178,1.56c-39.4,5.7-70.4,27.1-86.8,59.9-11.8,23.8-14.2,38.3-14.2,87.6v34.9h-33.9c-18.8,0-35.1.4-36.4.9-1.4.6-3.5,2-4.6,3.2-2.1,2.2-2.1,2.9-2.1,48.3,0,42.2.2,46.3,1.8,48.2,3.4,4.3,4.7,4.4,40.6,4.4h34.6v216l2.9,3.2,2.9,3.3,46.6.3c41.1.2,47,.1,49.7-1.3,6.2-3.2,5.9,1.8,5.9-115v-106.5h40c28.8,0,40.6-.3,42.5-1.2,5.5-2.5,5.5-2.9,5.5-51.7v-45.1l-2.9-3.2-2.9-3.3-41.2-.3-41.1-.3.3-32.3.3-32.2,3-5.9c3.3-6.4,8.8-10.7,16.2-12.7,2.1-.6,16.9-1.2,32.8-1.4,16-.3,30.1-.7,31.3-1,1.3-.3,3.5-1.7,4.8-3.1l2.4-2.6v-43.2c0-42.4,0-43.2-2.1-45.4-1.1-1.2-3.2-2.6-4.6-3.2-4-1.5-80.1-.9-91.3.7Z"/></svg>