<?xml version="1.0" encoding="UTF-8"?><svg id="Layer_1" xmlns="http://www.w3.org/2000/svg" width="512.05" height="511.9" viewBox="0 0 512.05 511.9"><defs><style>.icon-fill { fill: white; stroke-width: 0px; }</style></defs><path class="icon-fill" d="m121.83.98c-16.7,2-36.4,8.5-51.4,17C31.63,40.28,6.03,79.08,1.13,123.18c-1.5,13.3-1.5,252.1,0,265.4,7.1,64.3,57.9,115.1,122.2,122.2,13.3,1.5,252.1,1.5,265.4,0,64.3-7.1,115.1-57.9,122.2-122.2,1.5-13.3,1.5-252.1,0-265.4-7.1-64.3-57.9-115.1-122.2-122.2C376.93-.33,133.33-.33,121.83.98Zm289.2,67.1c15,4.5,26.5,17.7,29,33.4,3,18.5-8.3,37.8-26.1,44.5-15.2,5.8-33.3,1.7-44.3-10.1-23.1-24.7-8.8-64.6,24.9-69.3,4-.5,12.1.2,16.5,1.5Zm-136.6,49.3c30.9,4.1,57.7,17.4,80.2,39.9,55,55,55,142.2,0,197.2s-142.2,55-197.2,0-55-142.2,0-197.2c31.5-31.4,73.4-45.7,117-39.9Z"/><path class="icon-fill" d="m396.53,96.58c-3.2.8-7.4,5.4-8.1,8.9-.8,4.6,1.9,9.8,6.3,11.9,4.6,2.2,9.1,1.3,12.8-2.5,4.5-4.7,3.6-13-1.8-16.4-2.7-1.7-6.5-2.5-9.2-1.9Z"/><path class="icon-fill" d="m239.43,147.38c-23.3,3.6-44.1,14.2-60.9,31-43.1,43-43.1,112,0,155,43,43.1,112,43.1,155,0,43.1-43,43.1-112,0-155-24.9-24.9-59.7-36.4-94.1-31Z"/></svg>