<?xml version="1.0" encoding="UTF-8"?><svg id="Layer_1" xmlns="http://www.w3.org/2000/svg" width="511.84" height="455.41" viewBox="0 0 511.84 455.41"><defs><style>.icon-fill { fill: white; stroke-width: 0px; }</style></defs><path class="icon-fill" d="m52.24.41C33.04,2.11,17.54,10.51,8.44,24.31,3.34,32.11,1.04,38.51.24,47.41c-1.5,15.8,4,31.6,14.9,42.5s23.8,15.5,41.4,15.5,31.1-4.8,41.9-15.2c10.3-9.8,15.4-22,15.4-36.2,0-10.2-2-18.7-6.4-27.4C97.14,6.21,79.94-1.99,52.24.41Z"/><path class="icon-fill" d="m371.34,141.01c-22,2.4-43.8,10.6-58.4,21.8-6.7,5.2-19,17.9-22.8,23.7l-2.8,4.3-.3-21.7-.2-21.7h-109.5l-.2,154-.2,154h109.9v-90.3c0-50.5.5-93,1-96.7,1.5-10.5,6.9-20.1,16.9-30.1,12.6-12.5,23.4-16.9,41.6-16.9s30,4.5,39.1,14.3c9.6,10.3,14.7,24.8,16.4,46.2.5,6.6,1,48.3,1,92.7v80.8h109v-93.3c0-95.6-.3-106.3-4-124.2-7.7-37.1-28-66.5-57-82.3-9.4-5.1-25.6-10.5-38-12.7-9.4-1.6-33.9-2.7-41.5-1.9Z"/><path class="icon-fill" d="m6.84,301.41v154h109V147.41H6.84v154Z"/></svg>